<svg viewBox="0 0 100 100" xmlns="http://www.w3.org/2000/svg">
  <defs>
    <linearGradient id="grad" x1="0%" y1="0%" x2="100%" y2="100%">
      <stop offset="0%" style="stop-color:#3b82f6;stop-opacity:1" />
      <stop offset="100%" style="stop-color:#2563eb;stop-opacity:1" />
    </linearGradient>
  </defs>
  <rect width="100" height="100" rx="20" fill="url(#grad)"/>
  <path d="M50 25 C35 25 30 35 30 45 C30 55 35 65 50 65 C65 65 70 55 70 45 C70 35 65 25 50 25 Z M30 50 L20 50 C20 55 22 60 25 60 C28 60 30 55 30 50 Z M70 50 C70 55 72 60 75 60 C78 60 80 55 80 50 L70 50 Z M35 70 C35 75 40 80 50 80 C60 80 65 75 65 70 L35 70 Z" fill="white" opacity="0.9"/>
</svg>
